# xmcd
#
# Track frame offsets:
# 150
# 14436
# 25847
# 49750
# 70720
# 96571
# 123845
# 138356
# 168243
# 188643
# 213674
#
# Disc length: 3043 seconds
#
#
# Revision: 0
# Processed by: cddbd v1.5.2PL0 Copyright (c) Steve Scherf et al.
# Submitted via: FreeRIP 2.943 
#
DISCID=950be10b
DTITLE=The Kill Devil Hills - The Drought
DYEAR=2006
DGENRE=Alternative
TTITLE0=Did I Damage You?
TTITLE1=Dogs O' War
TTITLE2=Nasty Business
TTITLE3=Boneyard Rider
TTITLE4=The Drought
TTITLE5=Drugs, Spices and Silk
TTITLE6=New Country
TTITLE7=This Old Town
TTITLE8=The Forsaken Few
TTITLE9=I Wonder If She's Thinking Of Me
TTITLE10=Jesus Train
EXTD=Recorded at Studio Couch, Fremantle, Australia\nwww.thekilldevilhills.com.au\nTorn and Frayed, Shock Records
EXTT0=
EXTT1=
EXTT2=
EXTT3=
EXTT4=
EXTT5=
EXTT6=
EXTT7=
EXTT8=
EXTT9=
EXTT10=
PLAYORDER=
